<svg width="100" height="100" viewBox="0 0 100 100" fill="none" xmlns="http://www.w3.org/2000/svg">
<circle cx="50" cy="50" r="50" fill="black"/>
<path d="M35.8723 75.8045C32.7072 75.8045 30.0187 74.9695 27.807 73.2995C25.6333 71.6295 23.9554 69.3631 22.7732 66.5003C21.6292 63.5897 21.0381 60.2736 21 56.5518L29.7518 56.0508C29.7899 59.6771 30.3429 62.3491 31.4106 64.0668C32.4784 65.7846 33.9656 66.6434 35.8723 66.6434C37.8172 66.6434 39.3235 65.8084 40.3913 64.1384C41.459 62.4684 41.9929 59.8918 41.9929 56.4087V23.8438H50.6875V56.4087C50.6875 60.369 50.0583 63.8044 48.7999 66.715C47.5796 69.6255 45.8635 71.8681 43.6517 73.4427C41.4399 75.0173 38.8468 75.8045 35.8723 75.8045Z" fill="white"/>
<path d="M46.7812 74.8241V23.8438H63.1132C68.0204 23.8438 71.8542 25.3277 74.6145 28.2956C77.4132 31.2634 78.8125 35.3323 78.8125 40.5021C78.8125 43.9008 78.1799 46.8687 76.9148 49.4058C75.688 51.8949 73.8861 53.8336 71.5091 55.2218C69.1705 56.5622 66.3719 57.2323 63.1132 57.2323H55.5223V74.8241H46.7812ZM55.5223 48.0415H62.5956C64.8959 48.0415 66.6786 47.4192 67.9437 46.1746C69.2089 44.8821 69.8414 42.9913 69.8414 40.5021C69.8414 38.0608 69.2089 36.2179 67.9437 34.9733C66.7169 33.6808 64.9342 33.0346 62.5956 33.0346H55.5223V48.0415Z" fill="white"/>
</svg>
