<svg width="100" height="80" viewBox="0 0 100 80" fill="none" xmlns="http://www.w3.org/2000/svg">
<ellipse cx="50" cy="39.8438" rx="50" ry="39.8438" fill="black"/>
<path d="M35.1848 60.9375C32.0197 60.9375 29.3312 60.2721 27.1195 58.9413C24.9458 57.6106 23.2679 55.8045 22.0857 53.5232C20.9417 51.2038 20.3506 48.5613 20.3125 45.5955L29.0643 45.1963C29.1024 48.086 29.6554 50.2152 30.7231 51.584C31.7909 52.9528 33.2781 53.6372 35.1848 53.6372C37.1297 53.6372 38.636 52.9718 39.7038 51.6411C40.7715 50.3103 41.3054 48.2571 41.3054 45.4814V19.5312H50V45.4814C50 48.6373 49.3708 51.3749 48.1124 53.6943C46.8921 56.0136 45.176 57.8007 42.9642 59.0554C40.7524 60.3101 38.1593 60.9375 35.1848 60.9375Z" fill="white"/>
<path d="M46.0938 60.1562V19.5312H62.4257C67.3329 19.5312 71.1667 20.7138 73.927 23.0788C76.7257 25.4438 78.125 28.6862 78.125 32.8059C78.125 35.5142 77.4924 37.8793 76.2273 39.901C75.0005 41.8845 73.1986 43.4294 70.8216 44.5357C68.483 45.6037 65.6844 46.1378 62.4257 46.1378H54.8348V60.1562H46.0938ZM54.8348 38.8138H61.9081C64.2084 38.8138 65.9911 38.3179 67.2562 37.3261C68.5214 36.2962 69.1539 34.7895 69.1539 32.8059C69.1539 30.8605 68.5214 29.3919 67.2562 28.4001C66.0294 27.3702 64.2467 26.8552 61.9081 26.8552H54.8348V38.8138Z" fill="white"/>
</svg>
